<?xml version="1.0" encoding="UTF-8"?>
<svg width="148px" height="33px" viewBox="0 0 148 33" version="1.1" xmlns="http://www.w3.org/2000/svg" xmlns:xlink="http://www.w3.org/1999/xlink">
    <title>AB3CA229-58C1-40F8-B153-C97564EAF035</title>
    <g id="Prototype-" stroke="none" stroke-width="1" fill="none" fill-rule="evenodd">
        <g id="1" transform="translate(-88.000000, -20.000000)">
            <rect fill="#FFFFFF" x="0" y="0" width="1440" height="1231"></rect>
            <g id="Top-Bar-">
                <rect id="Rectangle" fill="#002776" x="0" y="0" width="1440" height="71"></rect>
                <g id="Logo" transform="translate(88.000000, 20.000000)" fill="#FFFFFF">
                    <path d="M19.4010076,14.8075024 C18.6245879,14.0388439 17.2967978,12.5610878 16.8370544,12.8436 C16.4713495,13.0609171 16.0172324,14.6111122 15.7238647,15.5383317 C15.1532043,16.9219171 14.7657982,18.2580146 14.3944671,19.7309415 C14.3293636,20.2122585 14.1075294,20.8577707 14.0601083,21.1040634 C14.013491,21.3559902 13.8061242,21.964478 13.7466469,22.2188195 C13.6984221,22.4466 13.3568296,23.575039 13.5826825,23.8945756 C13.7474507,24.1296 14.2256802,24.0853317 14.5150291,23.9984049 C15.5727603,23.7505024 16.2302254,23.4663805 17.2791153,23.1911122 C17.4446872,23.1009659 17.6633064,23.0703805 17.8192333,22.9995512 C18.5522507,22.7516488 19.205697,22.3033317 19.9089757,21.9829902 C20.9096408,21.4050878 22.6529682,21.2400878 22.7011931,19.7309415 C22.3604043,17.747722 20.5744783,16.4454293 19.4010076,14.8075024 M20.038379,20.2372098 C19.3439415,20.6879415 18.5369795,20.8642098 17.8481682,21.318161 C17.0717486,21.7560146 15.996335,22.2590634 15.786557,22.1109659 C15.5775828,21.964478 15.7061823,21.7560146 15.7568184,21.5708927 C16.1924493,20.5374293 16.1434207,19.3156244 16.7711472,18.3706976 C17.0677298,17.7758927 17.3972661,16.632161 17.6914376,16.6200878 C18.0700024,16.5983561 19.2579406,17.8475268 19.7835912,18.7787707 C19.9764905,19.2045512 20.5254497,19.7454293 20.038379,20.2372098" id="Fill-1"></path>
                    <path d="M32.7817085,17.1592756 C31.4571333,15.1494951 31.5198256,12.5650317 30.4990668,10.4288854 C28.5507839,7.6335439 25.639612,5.32515366 22.7895249,3.88683659 C20.9095605,2.68515366 18.9114452,1.62512927 16.7710668,1.12771463 C16.4077731,1.03193415 15.1073104,0.866129268 14.297937,0.804958537 C12.1238012,0.817031707 10.5500644,2.66664146 9.51081948,4.39712927 C8.11631831,7.10151951 7.48859185,10.1246415 6.02255719,12.8105195 C5.99844478,12.952178 5.92932253,13.0624463 5.86421902,13.1912268 C4.58786867,15.7056659 3.39993049,18.258739 1.74501527,20.6194463 C0.941268197,22.1028366 0.0209777986,23.6208366 8.03747074e-05,25.3481049 C0.157614801,27.1574707 0.468664918,29.0883732 2.18787991,30.1773732 C3.76483166,30.9564951 5.36348459,31.7589585 7.10038201,32.0495195 C8.09863588,32.019739 8.96427148,32.481739 9.89259934,32.7183732 C12.118175,33.1393244 14.6612307,32.7916171 16.8683202,32.3980317 C19.4081609,32.0438854 22.3900626,32.5324463 24.8543511,31.6052268 C26.8741675,30.6039585 29.0161534,29.9149829 30.8486968,28.4613732 C31.9321478,27.2629098 33.5259783,26.2246171 34.1111061,24.7154707 C34.7299914,22.0730561 33.733345,19.4700805 32.7817085,17.1592756 L32.7817085,17.1592756 Z M30.6887511,22.3958122 C29.0008822,25.4310073 25.7055193,26.3477634 23.0467239,27.9204951 C20.2737965,29.3250073 17.1102481,29.7717146 14.2055061,30.8422024 C13.1558125,31.2977634 11.895537,31.0426171 10.7124214,31.0603244 C9.44732347,31.0096171 8.3124326,30.4156171 7.29087007,29.6678854 C5.73803073,27.7780317 5.70427335,24.7895195 6.33923354,22.4577878 C6.76923822,21.1321537 6.85684665,19.6729098 7.47733939,18.4277634 C9.36775251,14.3929098 10.672234,10.259861 13.0424841,6.43749512 C13.617967,5.35895854 13.7658565,3.65583659 15.1531239,3.22603171 C15.6514471,3.14876341 15.7695979,3.00147073 16.7083745,3.15600732 C17.9919586,3.65503171 19.605079,4.58466585 20.3541712,5.15612927 C21.1040673,5.73644634 26.5044438,11.302178 28.852189,14.7156659 C29.4341019,15.6195439 29.9774349,16.6063244 30.4677207,17.5705683 C30.6517787,18.0969585 30.7787708,18.6402512 30.8486968,19.1940073 C30.9403239,19.8781537 31.474012,21.5040073 30.6879474,22.3958122 L30.6887511,22.3958122 Z M26.7238668,16.9347146 C26.3219933,14.8822756 24.8157712,13.256422 23.5892532,11.5726171 C21.8571783,9.1515439 19.2112429,7.75266585 16.8377778,6.30147073 C16.3539221,6.0495439 15.6393909,5.65595854 15.3114621,5.73000732 C14.9819258,5.79842195 14.8886911,6.13003171 14.7729516,6.30147073 C14.0905703,7.8057878 13.3599642,9.28756829 12.5843483,10.7460073 C11.7468438,12.9610317 11.1914546,15.3338122 10.4913909,17.5713732 C9.44732347,19.9361049 8.34699372,22.5093 8.5599867,25.1613732 C8.67653002,26.231861 8.71752112,27.4013488 9.63700778,28.0806659 C10.7461787,28.7302024 12.1463061,28.891178 13.4749,28.8453 C16.7710668,28.5474951 20.2432541,28.5008122 22.9526855,26.6833976 C23.1158462,26.5924463 24.9508007,25.0003976 25.9988869,24.1729829 C26.6362584,23.5757634 27.5051089,22.9431293 27.6449609,22.0778854 C27.7639155,20.4198366 27.1305628,18.6120805 26.7238668,16.9347146 L26.7238668,16.9347146 Z M23.9011071,22.4577878 C20.6796888,24.8514951 17.3007361,26.8516171 13.3487118,27.4786171 C12.7539389,27.498739 12.1326424,27.3120073 11.76533,26.7493976 C10.5685506,24.6019829 11.8231998,22.1422756 12.0466415,19.9183976 C12.251597,18.8543488 12.7700139,17.9303488 13.1558125,16.9347146 L15.8507764,10.8409829 C16.2719399,10.0731293 16.843404,8.89317805 17.3441385,8.61951951 C17.8360317,8.34908049 18.6638911,9.28595854 19.1782893,9.75922683 L19.9088954,10.6816171 C20.8902705,12.0724463 21.8628045,13.4697146 22.8256935,14.8726171 C23.6214031,16.3849829 24.5698246,17.8482512 25.0118855,19.5063 C25.236131,20.6194463 24.8222012,21.7325927 23.9011071,22.4577878 L23.9011071,22.4577878 Z M48.8920148,22.6388854 L47.118145,22.6388854 C46.7411876,22.6388854 46.5957094,22.4577878 46.501671,22.1913732 L45.8699258,20.3546415 L41.9621075,20.3546415 L41.3279511,22.2565683 C41.2636513,22.4577878 41.1390705,22.6380805 40.8537403,22.6380805 L39.0493281,22.6380805 C38.8773263,22.6380805 38.7977553,22.5262024 38.7977553,22.3797146 C38.7977553,22.3217634 38.7977553,22.2565683 38.8282977,22.1913732 L42.596264,12.0362268 C42.6894986,11.7963732 42.8349769,11.6466659 43.133167,11.6466659 L44.7607548,11.6466659 C45.0790387,11.6466659 45.2526481,11.7810805 45.3314153,11.9871293 L49.1781488,22.0778854 C49.2070837,22.1736659 49.2247661,22.2565683 49.2247661,22.3217634 C49.2247661,22.5093 49.1122415,22.6380805 48.8920148,22.6380805 L48.8920148,22.6388854 Z M44.1941132,15.3305927 C44.092841,15.0263488 43.9979989,14.7196902 43.908783,14.411422 L43.8774368,14.411422 C43.7970621,14.6979585 43.7006125,15.0142756 43.5929104,15.3466902 L42.596264,18.4527146 L45.1915633,18.4527146 L44.1949169,15.3305927 L44.1941132,15.3305927 Z M56.9222518,22.6372756 L55.4658621,22.6372756 C55.1379333,22.6372756 55.0109413,22.4577878 55.0109413,22.1599829 L55.0109413,17.9448366 C55.0109413,17.2783976 54.8373319,16.8357146 54.1099408,16.8357146 C53.5842902,16.8357146 52.9364701,17.0723488 52.4944092,17.4562756 L52.4944092,22.172861 C52.4944092,22.4771049 52.3666134,22.6372756 52.0507408,22.6372756 L50.5638087,22.6372756 C50.2929459,22.6372756 50.1209441,22.4915927 50.1209441,22.2074707 L50.1209441,15.3756659 C50.1209441,15.077861 50.2318612,14.9176902 50.5814911,14.9176902 L51.8803464,14.9176902 C52.1142368,14.9176902 52.2902574,14.9828854 52.3216036,15.2501049 L52.3553609,15.5849341 C53.0731071,15.0102512 53.9636588,14.6963488 54.8831455,14.6963488 C56.6232579,14.6963488 57.3811914,15.7909829 57.3811914,17.5182512 L57.3811914,22.1599829 C57.3811914,22.4771049 57.274293,22.6372756 56.9230556,22.6372756 L56.9222518,22.6372756 Z M62.2430574,26.099861 C61.4200204,26.099861 60.6419933,25.9775195 59.8077038,25.6273976 C59.6019445,25.5453 59.5247848,25.452739 59.5247848,25.2788854 C59.5247848,25.1806902 59.5521122,25.0937634 59.5722059,25.0092512 L59.8374424,24.1174463 C59.9017422,23.9186415 59.9515745,23.8059585 60.0745478,23.8059585 C60.1894837,23.8059585 60.2650359,23.8236659 60.3783642,23.8663244 C60.9642958,24.0933 61.5775548,24.231739 62.1176729,24.231739 C63.5595951,24.231739 63.7645506,23.4888366 63.7645506,22.5253976 L63.7645506,21.9491049 C63.3208822,22.3209585 62.5010602,22.6646415 61.8661,22.6646415 C60.9136598,22.6646415 60.1115202,22.364422 59.5247848,21.776861 C58.8448148,21.116861 58.5080448,20.0793732 58.5080448,18.925178 C58.5080448,16.7898366 59.7442078,14.7309585 62.0718593,14.7309585 C62.4512279,14.7309585 62.8032691,14.807422 63.1464691,14.9643732 C63.401257,15.077861 63.731597,15.3297878 63.9052064,15.5849341 L63.9373563,15.2380317 C63.9534312,15.024739 64.0820307,14.9176902 64.3472673,14.9176902 L65.6935436,14.9176902 C66.0238837,14.9176902 66.1356045,15.0472756 66.1356045,15.3635927 L66.1356045,22.0159098 C66.1356045,24.6752268 64.9814237,26.099861 62.2430574,26.099861 L62.2430574,26.099861 Z M63.7645506,17.1520317 C63.4655567,16.8654951 62.988131,16.6449585 62.5291914,16.6449585 C62.1176729,16.6449585 61.7712579,16.820422 61.532545,17.0538366 C61.1049516,17.486861 60.979567,18.2088366 60.979567,18.7803 C60.979567,19.3517634 61.1049516,19.9892268 61.5196851,20.384422 C61.7712579,20.6339341 62.1482153,20.7361537 62.4681066,20.7361537 C62.9559811,20.7361537 63.5073516,20.4311049 63.7645506,20.1663 L63.7645506,17.1520317 Z M69.8465047,22.6372756 L68.3137591,22.6372756 C68.0798687,22.6372756 67.8893806,22.5084951 67.8893806,22.2074707 L67.8893806,11.9243488 C67.8893806,11.6080317 68.0308401,11.5098366 68.266338,11.4816659 L69.7669338,11.2796415 L69.9292907,11.2796415 C70.1495174,11.2796415 70.258827,11.4116415 70.258827,11.6700073 L70.258827,22.1905683 C70.258827,22.4923976 70.1012926,22.6372756 69.8465047,22.6372756 L69.8465047,22.6372756 Z M75.4590705,22.8433244 C72.7842003,22.8433244 71.5367848,21.1160561 71.5367848,18.7593732 C71.5367848,16.4236171 73.0068382,14.6971537 75.5691839,14.6971537 C78.2448579,14.6971537 79.4970958,16.4236171 79.4970958,18.7803 C79.4970958,21.1160561 78.02222,22.8433244 75.4590705,22.8433244 L75.4590705,22.8433244 Z M75.5410527,16.5652756 C74.3683858,16.5652756 73.9898209,17.5818366 73.9898209,18.7352268 C73.9898209,19.908739 74.3201609,20.9679585 75.4944354,20.9679585 C76.6622799,20.9679585 77.0408448,19.9280561 77.0408448,18.7682268 C77.0408448,17.5971293 76.7088972,16.5652756 75.5410527,16.5652756 L75.5410527,16.5652756 Z M90.1571933,22.6380805 L88.3841272,22.6380805 C88.0055623,22.6380805 87.8673178,22.4577878 87.7708682,22.1905683 L87.1343005,20.3538366 L83.2280897,20.3538366 L82.5931296,22.2565683 C82.5320448,22.4577878 82.4058565,22.6372756 82.1189188,22.6372756 L80.3161141,22.6372756 C80.1433085,22.6372756 80.06213,22.5253976 80.06213,22.3789098 C80.06213,22.3209585 80.06213,22.2565683 80.0966911,22.1905683 L83.8614424,12.035422 C83.9554808,11.7955683 84.0993516,11.645861 84.399953,11.645861 L86.0283445,11.645861 C86.3482359,11.645861 86.5178265,11.7802756 86.599005,11.9863244 L90.440916,22.0770805 C90.4706546,22.1551537 90.488337,22.2372512 90.4923558,22.3209585 C90.4923558,22.5084951 90.3798312,22.6372756 90.1571933,22.6372756 L90.1571933,22.6380805 Z M85.4592916,15.3297878 C85.3620382,15.0239341 85.2671961,14.7180805 85.1755689,14.4106171 L85.1410078,14.4106171 C85.0622406,14.6971537 84.9682022,15.0134707 84.8580888,15.3458854 L83.8614424,18.4519098 L86.4543305,18.4519098 L85.4592916,15.3297878 Z M102.75834,22.6372756 L101.336511,22.6372756 C101.006975,22.6372756 100.849441,22.5253976 100.849441,22.172861 L100.849441,17.928739 C100.849441,17.2961049 100.703159,16.7898366 99.9918424,16.7898366 C99.4388644,16.7898366 98.7910443,17.0876415 98.3626471,17.4562756 L98.3626471,22.172861 C98.3626471,22.5084951 98.2203839,22.6372756 97.9037075,22.6372756 L96.6064598,22.6372756 C96.2737085,22.6372756 96.1161741,22.5253976 96.1161741,22.172861 L96.1161741,17.928739 C96.1161741,17.2961049 95.9763221,16.7898366 95.2609872,16.7898366 C94.7385516,16.7898366 94.200041,17.0538366 93.7603914,17.4562756 L93.7603914,22.172861 C93.7603914,22.5084951 93.6133057,22.6372756 93.2998443,22.6372756 L91.8788195,22.6372756 C91.5428532,22.6372756 91.3853188,22.5253976 91.3853188,22.172861 L91.3853188,15.3297878 C91.3853188,15.0480805 91.5629469,14.9176902 91.8281834,14.9176902 L93.1238237,14.9176902 C93.393079,14.9176902 93.5522209,15.0134707 93.589997,15.2501049 L93.6141094,15.5511293 C94.2474621,15.0134707 95.0737141,14.6971537 95.8806762,14.6971537 C96.9416223,14.6971537 97.5251427,15.2187146 97.8530715,15.757178 C98.5684064,15.0472756 99.6108663,14.6971537 100.60912,14.6971537 C101.842068,14.6971537 102.618488,15.394178 102.903818,16.0421049 C103.189148,16.6779585 103.220494,17.387861 103.220494,18.5130805 L103.220494,22.172861 C103.220494,22.5084951 103.079839,22.6372756 102.75834,22.6372756 L102.75834,22.6372756 Z M111.355219,19.400861 L106.920142,19.400861 C107.113041,20.4013244 107.998771,20.9542756 108.963267,20.9542756 C109.656901,20.9542756 110.322404,20.7989341 110.95656,20.5445927 C111.016037,20.5140073 111.081141,20.4987146 111.147852,20.4987146 C111.288508,20.4987146 111.364864,20.5936902 111.397817,20.7160317 C111.462921,20.9864707 111.699222,21.7148854 111.699222,21.9491049 C111.699222,22.1599829 111.557763,22.218739 111.397817,22.3032512 C110.56192,22.680739 109.453553,22.8433244 108.537281,22.8433244 C106.019142,22.8433244 104.4229,21.2842756 104.4229,18.7593732 C104.4229,16.2948366 106.083441,14.6810561 108.518795,14.6810561 C109.533928,14.6810561 110.384292,15.0625683 110.972635,15.6952024 C111.760307,16.5338854 111.92186,17.6293244 111.92186,18.7352268 L111.92186,18.9477146 C111.92186,19.321178 111.746643,19.400861 111.355219,19.400861 L111.355219,19.400861 Z M108.378943,16.5153732 C107.586449,16.5153732 107.064817,17.1512268 106.953096,17.8973488 L109.59662,17.8973488 C109.59662,17.216422 109.198765,16.5153732 108.378943,16.5153732 L108.378943,16.5153732 Z M118.077759,15.1390317 L117.839046,16.6296659 C117.810915,16.7986902 117.728933,16.8840073 117.588277,16.8840073 L117.505491,16.8840073 C117.365639,16.8485927 117.223376,16.8324951 117.079505,16.8357146 C116.556266,16.8357146 116.019363,17.0538366 115.623919,17.4562756 L115.623919,22.1905683 C115.623919,22.4771049 115.49532,22.6372756 115.179447,22.6372756 L113.69573,22.6372756 C113.407185,22.6372756 113.250454,22.4915927 113.250454,22.1905683 L113.250454,15.3756659 C113.250454,15.0005927 113.436923,14.9176902 113.709394,14.9176902 L114.992174,14.9176902 C115.28956,14.9176902 115.434235,15.0005927 115.447899,15.2380317 L115.479245,15.7104951 C116.049905,15.024739 116.528135,14.6963488 117.45807,14.6963488 C117.588277,14.6963488 117.760279,14.7309585 117.900935,14.7551049 C118.027123,14.7889098 118.077759,14.8565195 118.089815,14.9643732 L118.089815,15.0005927 C118.089815,15.0472756 118.089815,15.077861 118.077759,15.1390317 L118.077759,15.1390317 Z M120.382906,14.0025439 C119.788133,14.0025439 119.107359,13.5751537 119.107359,12.8129341 C119.107359,12.035422 119.734282,11.5895195 120.382906,11.5895195 C121.015455,11.5895195 121.648004,12.035422 121.648004,12.7968366 C121.648004,13.5566415 120.984912,14.0025439 120.382906,14.0025439 L120.382906,14.0025439 Z M121.128783,22.6372756 L119.703739,22.6372756 C119.374203,22.6372756 119.217472,22.5253976 119.217472,22.172861 L119.217472,15.3297878 C119.217472,15.0134707 119.42082,14.9176902 119.703739,14.9176902 L121.128783,14.9176902 C121.428581,14.9176902 121.591741,15.0005927 121.591741,15.3297878 L121.591741,22.172861 C121.591741,22.4923976 121.444656,22.6372756 121.128783,22.6372756 L121.128783,22.6372756 Z M129.259488,22.3636171 C128.421984,22.7483488 127.771753,22.8433244 126.84021,22.8433244 C124.432987,22.8433244 122.963738,21.3993732 122.963738,18.8937878 C122.963738,16.3286415 124.498894,14.6971537 127.013819,14.6971537 C127.758089,14.6971537 128.471012,14.807422 129.214479,15.123739 C129.355938,15.1849098 129.416219,15.2501049 129.416219,15.4102756 C129.416219,15.473861 129.404967,15.5229585 129.388088,15.5849341 L129.135711,16.7254463 C129.105169,16.8840073 129.023187,16.9427634 128.929952,16.9427634 C128.868867,16.9427634 128.785278,16.912178 128.704903,16.8840073 C128.262038,16.7125683 127.807117,16.5829829 127.315224,16.5829829 C126.082276,16.5829829 125.41597,17.407178 125.41597,18.7682268 C125.41597,20.2073488 126.112819,20.9864707 127.205111,20.9864707 C127.885885,20.9864707 128.188093,20.8890805 128.784474,20.6516415 C128.850381,20.6339341 128.89941,20.6089829 128.960494,20.6089829 C129.086683,20.6089829 129.147767,20.6991293 129.180721,20.8118122 C129.259488,21.0951293 129.512669,21.8195195 129.512669,22.0770805 C129.512669,22.2565683 129.388088,22.3032512 129.259488,22.364422 L129.259488,22.3636171 Z M137.898162,22.6372756 L137.062265,22.6372756 C136.125096,22.6372756 135.749746,22.3636171 135.539968,21.9048366 L135.511033,21.9048366 C135.081832,22.3966171 134.074737,22.8433244 133.293495,22.8433244 C131.017283,22.8433244 129.959552,21.0331537 129.959552,18.925178 C129.959552,16.1225927 131.697253,14.6971537 133.440581,14.6971537 C134.323095,14.6971537 135.036822,15.1084463 135.367162,15.5849341 L135.415387,15.2380317 C135.432266,15.0504951 135.592212,14.9096415 135.779485,14.9176902 L137.201313,14.9176902 C137.429577,14.9176902 137.580682,15.0472756 137.580682,15.2959829 L137.580682,20.766739 C137.580682,20.9220805 137.643374,21.0331537 137.821002,21.0331537 L137.94719,21.0331537 C138.169025,21.0331537 138.276727,21.1160561 138.276727,21.3502756 L138.276727,22.265422 C138.276727,22.5084951 138.1208,22.6372756 137.898966,22.6372756 L137.898162,22.6372756 Z M135.20802,17.2043488 C134.924298,16.9427634 134.402666,16.6634707 133.930063,16.6634707 C133.15525,16.6634707 132.427056,17.2961049 132.427056,18.7682268 C132.427056,19.7517878 132.678628,20.9220805 133.882641,20.9220805 C134.447676,20.9220805 135.019944,20.4987146 135.20802,20.2556415 L135.20802,17.2043488 Z M146.349562,22.6372756 L144.889154,22.6372756 C144.560421,22.6372756 144.431822,22.4577878 144.431822,22.1599829 L144.431822,17.9448366 C144.431822,17.2783976 144.25982,16.8357146 143.531625,16.8357146 C143.010797,16.8357146 142.362173,17.0723488 141.916093,17.4562756 L141.916093,22.172861 C141.916093,22.4771049 141.792316,22.6372756 141.47564,22.6372756 L139.987904,22.6372756 C139.717041,22.6372756 139.541021,22.4915927 139.541021,22.2074707 L139.541021,15.3756659 C139.541021,15.077861 139.653545,14.9176902 140.003979,14.9176902 L141.298012,14.9176902 C141.538332,14.9176902 141.70953,14.9828854 141.74168,15.2501049 L141.777045,15.5849341 C142.494791,15.0094463 143.386951,14.6955439 144.307241,14.6963472 C146.049765,14.6963472 146.807698,15.7909829 146.807698,17.5182512 L146.807698,22.1599829 C146.807698,22.4771049 146.695174,22.6372756 146.349562,22.6372756 L146.349562,22.6372756 Z" id="Fill-3"></path>
                </g>
            </g>
        </g>
    </g>
</svg>